<svg xmlns="http://www.w3.org/2000/svg" style="isolation:isolate" width="300" height="300"><defs><clipPath id="a"><path d="M0 0h300v300H0z"/></clipPath></defs><g fill="#FFF" clip-path="url(#a)"><path d="M137.178 27.498v232.33h-30.127V27.498H25V.738h194.229v26.76h-82.051z"/><path d="M218.745 62.263h-29.398l-2.178 40.286v134.65q0 18.873 1.089 26.495l1.451 12.703 31.939 2.903-2.178 19.962-21.05-.726q-23.954-.726-36.294-.726-12.34 0-26.131.726l-11.614.726-1.815-18.873 27.946-3.266q.363-3.267 1.996-12.522 1.634-9.255 1.634-16.513V91.661q0-4.355-1.452-15.788-1.452-11.432-2.178-13.61h-28.309q-17.058.726-24.317 1.815-6.533 9.436-7.259 12.884-.726 3.448-3.629 19.054l-21.05-1.814 2.54-51.9 3.629-3.993q35.205 3.63 44.642 3.63h107.43q9.436 0 44.641-3.63l3.629 3.993 2.541 51.9-21.05 1.814q-2.904-15.606-4.356-20.324-1.451-4.718-6.896-11.614-6.895-1.089-23.953-1.815z"/></g></svg>